<?xml version="1.0" encoding="UTF-8" standalone="no"?>
<svg
   width="250"
   height="250"
   viewBox="0 0 250 250"
   version="1.1"
   xml:space="preserve"
   style="clip-rule:evenodd;fill-rule:evenodd"
   id="svg32"
   sodipodi:docname="t_pupper.svg"
   xmlns:inkscape="http://www.inkscape.org/namespaces/inkscape"
   xmlns:sodipodi="http://sodipodi.sourceforge.net/DTD/sodipodi-0.dtd"
   xmlns="http://www.w3.org/2000/svg"
   xmlns:svg="http://www.w3.org/2000/svg"
   xmlns:serif="http://www.serif.com/"><sodipodi:namedview
   id="namedview15522"
   pagecolor="#505050"
   bordercolor="#ffffff"
   borderopacity="1"
   inkscape:showpageshadow="0"
   inkscape:pageopacity="0"
   inkscape:pagecheckerboard="1"
   inkscape:deskcolor="#505050"
   showgrid="false" /><defs
   id="defs36" />
    
    <g
   id="Layer-1"
   serif:id="Layer 1"
   transform="translate(5.25,5.5)">
        <path
   id="path1088"
   d="m 59.5,59.5 h 40 v 10 h 10 v 30 h -10 v -10 h -10 v -10 h -10 v 20 h -10 v 30 h -10 v 10 h -20 v -10 h -10 v -40 h 10 v -10 h 10 v -10 h 10 z"
   style="fill:#955c3e;fill-rule:nonzero;stroke:#955c3e;stroke-width:1px"
   inkscape:label="path1088" />
        <path
   id="path1088-7"
   d="m 180,60 h -40 v 10 h -10 v 30 h 10 V 90 h 10 V 80 h 10 v 20 h 10 v 30 h 10 v 10 h 20 v -10 h 10 V 90 H 200 V 80 H 190 V 70 h -10 z"
   style="fill:#955c3e;fill-rule:nonzero;stroke:#955c3e;stroke-width:1px"
   inkscape:label="path1088-7" />
        <rect
   id="path5557"
   x="90.333"
   y="120.333"
   width="20"
   height="20"
   style="fill-rule:nonzero;stroke:#000000;stroke-width:0.67px" />
        <rect
   id="path5559"
   x="130.33299"
   y="120.333"
   width="20"
   height="20"
   style="fill-rule:nonzero;stroke:#000000;stroke-width:0.67px" />
        <path
   id="path5746"
   d="m 70.5,160.5 h 100 v 20 h -10 v 10 h -10 v 10 h -60 v -10 h -10 v -10 h -10 z"
   style="fill:#c8906f;fill-rule:nonzero;stroke:#c8906f;stroke-width:1px" />
        <path
   id="path11375"
   d="m 100.5,200.5 v 20 h 10 v 10 h 20 v -10 h 10 v -30 h -40 v 10"
   style="fill:#ee1c21;fill-rule:nonzero;stroke:#ee1c21;stroke-width:1px" />
        <path
   id="path15940"
   d="m 100.5,160.5 v 10 h 10 v 10 h 20 v -10 h 10 v -10 z"
   style="fill-rule:nonzero;stroke:#000000;stroke-width:1px" />
        <g
   id="g17751">
            <path
   id="path16742"
   d="m 79.5,8.5 v 10 h -20 v 10 h -10 v 10 h 10 v 10 h 20 v 10 h 80 v -10 h 20 v -10 h 10 v -10 h -10 v -10 h -20 v -10 z m 11,12 h 60 v 10 h 20 v 10 h -20 v 10 h -60 v -10 h -20 v -10 h 20 z"
   style="fill:#ffffff;fill-rule:nonzero;stroke:#ffffff;stroke-width:1px" />
        </g>
    </g>
</svg>
